# xmcd CD database file
#
# Track frame offsets:
#	150
#	13715
#	27265
#	39760
#	51896
#	64045
#	76403
#	90645
#	105046
#	130868
#	172927
#	186794
#	200961
#	215398
#	230724
#	246104
#	261477
#	273113
#	285961
#	304017
#	319951
#
# Disc length: 4518 seconds
#
# Revision: 1
# Processed by: cddbd v1.5.2PL0 Copyright (c) Steve Scherf et al.
# Submitted via: CDex 1.70beta2
#
DISCID=1c11a415
DTITLE=Erroll Garner - Laura
DYEAR=2008
DGENRE=Jazz
TTITLE0=i get a kick out ouf you - eroll garner trio new york, december 18, 1944
TTITLE1=laff, stam, laff slam - steward quartett new york, januar 30,1945
TTITLE2=stammin' around - don byas, new york, august 30, 1945
TTITLE3=three blind micesky - slam steward trio new york, september 7, 1945
TTITLE4=laura - erroll garner trio new york, september 25, 1945
TTITLE5=bird´s nest - charlie parker quartett hollywood, february 19, 1947
TTITLE6=cool blues - charlie parker quartett hollywood, february 19, 1947
TTITLE7=trio- erroll garner quartett hollywood, february 19, 1947
TTITLE8=lover - erroll garner trio - just jazz concert pasadena, april 29, 1947
TTITLE9=blue lou - wardell gray, erroll garner, irving ashby, red callender, jackie mils
TTITLE10=just you, just me - erroll garner quartett pasadena, july 26, 1948 live, civic auditoruim
TTITLE11=i can' t give you anything but love - erroll garner trio new york, july 20, 1949
TTITLE12=the way you look tonight - erroll garner trio new york, july 20, 1949
TTITLE13=when jonny comes marching home - erroll garner trio new york, june 28, 1950
TTITLE14=how high the moon - erroll garner trio new york, oktober 7, 1950
TTITLE15=honeysuckle rose - erroll garner trio new york, january 11, 1951
TTITLE16=oh, lady be good - erroll garner trio chicago, july 27, 1954
TTITLE17=misty - erroll garner trio chicago, july 27, 1954
TTITLE18=i' got the way on a string - erroll garner trio chicago, july 27, 1954
TTITLE19=it' s all right with me - erroll garner trio carmel, california, september 19, 1955 live concert
TTITLE20=they can' t take that away from me - erroll garner trio carmel, california, september 19, 1955 live concert
EXTD=YEAR: 2008
EXTT0=
EXTT1=
EXTT2=
EXTT3=
EXTT4=
EXTT5=
EXTT6=
EXTT7=
EXTT8=
EXTT9=
EXTT10=
EXTT11=
EXTT12=
EXTT13=
EXTT14=
EXTT15=
EXTT16=
EXTT17=
EXTT18=
EXTT19=
EXTT20=
PLAYORDER=
